<svg width="512" height="512" viewBox="0 0 512 512" fill="none" xmlns="http://www.w3.org/2000/svg">
  <defs>
    <linearGradient id="bg" x1="120" y1="110" x2="380" y2="405" gradientUnits="userSpaceOnUse">
      <stop stop-color="#2F82FF"/>
      <stop offset="1" stop-color="#063FBF"/>
    </linearGradient>
    <linearGradient id="wallet" x1="170" y1="170" x2="345" y2="338" gradientUnits="userSpaceOnUse">
      <stop stop-color="#FFFFFF"/>
      <stop offset="1" stop-color="#F5F8FF"/>
    </linearGradient>
  </defs>
  <circle cx="256" cy="256" r="178" fill="url(#bg)"/>
  <path d="M189 199 L312 169 C329 165 344 176 348 193 L351 206 H189 Z" fill="url(#wallet)"/>
  <rect x="162" y="205" width="214" height="146" rx="28" fill="url(#wallet)"/>
  <path d="M300 244 H382 V313 H300 C281 313 266 298 266 279.5 C266 259 281 244 300 244Z" fill="#0F55D8"/>
  <path d="M304 262 H382 V295 H304 C295 295 288 288 288 279 C288 269 295 262 304 262Z" fill="white"/>
  <circle cx="314" cy="279" r="10" fill="#0F55D8"/>
</svg>
